REM DIRINDEX 1\2,1\3,1\4,1\5
REM DIRNAME folder01,folder02,folder03,folder04,folder05
TITLE ""
FILE "1Q_t_1387-1396.mp3" MP3
  TRACK 01 AUDIO
    TITLE "3:cjc004_5066"
    INDEX 01 00:00:00
  TRACK 02 AUDIO
    TITLE "0:"
    INDEX 01 00:01:32
  TRACK 03 AUDIO
    TITLE "4:cjc004_5067"
    INDEX 01 00:01:62
  TRACK 04 AUDIO
    TITLE "0:"
    INDEX 01 00:02:69
  TRACK 05 AUDIO
    TITLE "5:cjc004_5068"
    INDEX 01 00:03:19
  TRACK 06 AUDIO
    TITLE "0:"
    INDEX 01 00:07:00
  TRACK 07 AUDIO
    TITLE "3:cjc004_5069"
    INDEX 01 00:07:56
  TRACK 08 AUDIO
    TITLE "0:"
    INDEX 01 00:08:73
  TRACK 09 AUDIO
    TITLE "4:cjc004_5070"
    INDEX 01 00:09:26
  TRACK 10 AUDIO
    TITLE "0:"
    INDEX 01 00:10:39
  TRACK 11 AUDIO
    TITLE "5:cjc004_5071"
    INDEX 01 00:10:66
  TRACK 12 AUDIO
    TITLE "0:"
    INDEX 01 00:17:21
  TRACK 13 AUDIO
    TITLE "3:cjc004_5072"
    INDEX 01 00:17:70
  TRACK 14 AUDIO
    TITLE "0:"
    INDEX 01 00:18:72
  TRACK 15 AUDIO
    TITLE "4:cjc004_5073"
    INDEX 01 00:19:28
  TRACK 16 AUDIO
    TITLE "0:"
    INDEX 01 00:20:37
  TRACK 17 AUDIO
    TITLE "5:cjc004_5074"
    INDEX 01 00:20:63
  TRACK 18 AUDIO
    TITLE "0:"
    INDEX 01 00:25:58
  TRACK 19 AUDIO
    TITLE "3:cjc004_5075"
    INDEX 01 00:26:36
  TRACK 20 AUDIO
    TITLE "0:"
    INDEX 01 00:27:51
  TRACK 21 AUDIO
    TITLE "4:cjc004_5076"
    INDEX 01 00:28:00
  TRACK 22 AUDIO
    TITLE "0:"
    INDEX 01 00:29:15
  TRACK 23 AUDIO
    TITLE "5:cjc004_5077"
    INDEX 01 00:29:40
  TRACK 24 AUDIO
    TITLE "0:"
    INDEX 01 00:33:66
  TRACK 25 AUDIO
    TITLE "3:cjc004_5078"
    INDEX 01 00:34:42
  TRACK 26 AUDIO
    TITLE "0:"
    INDEX 01 00:35:51
  TRACK 27 AUDIO
    TITLE "4:cjc004_5079"
    INDEX 01 00:35:74
  TRACK 28 AUDIO
    TITLE "0:"
    INDEX 01 00:37:26
  TRACK 29 AUDIO
    TITLE "5:cjc004_5080"
    INDEX 01 00:37:54
  TRACK 30 AUDIO
    TITLE "0:"
    INDEX 01 00:42:41
  TRACK 31 AUDIO
    TITLE "3:cjc004_5081"
    INDEX 01 00:43:21
  TRACK 32 AUDIO
    TITLE "0:"
    INDEX 01 00:44:54
  TRACK 33 AUDIO
    TITLE "4:cjc004_5082"
    INDEX 01 00:45:12
  TRACK 34 AUDIO
    TITLE "0:"
    INDEX 01 00:46:45
  TRACK 35 AUDIO
    TITLE "5:cjc004_5083"
    INDEX 01 00:46:68
  TRACK 36 AUDIO
    TITLE "0:"
    INDEX 01 00:50:44
  TRACK 37 AUDIO
    TITLE "3:cjc004_5084"
    INDEX 01 00:51:20
  TRACK 38 AUDIO
    TITLE "0:"
    INDEX 01 00:52:41
  TRACK 39 AUDIO
    TITLE "4:cjc004_5085"
    INDEX 01 00:52:65
  TRACK 40 AUDIO
    TITLE "0:"
    INDEX 01 00:54:21
  TRACK 41 AUDIO
    TITLE "5:cjc004_5086"
    INDEX 01 00:54:42
  TRACK 42 AUDIO
    TITLE "0:"
    INDEX 01 00:58:30
  TRACK 43 AUDIO
    TITLE "3:cjc004_5087"
    INDEX 01 00:59:06
  TRACK 44 AUDIO
    TITLE "0:"
    INDEX 01 01:00:33
  TRACK 45 AUDIO
    TITLE "4:cjc004_5088"
    INDEX 01 01:00:55
  TRACK 46 AUDIO
    TITLE "0:"
    INDEX 01 01:01:72
  TRACK 47 AUDIO
    TITLE "5:cjc004_5089"
    INDEX 01 01:02:18
  TRACK 48 AUDIO
    TITLE "0:"
    INDEX 01 01:08:54
  TRACK 49 AUDIO
    TITLE "3:cjc004_5090"
    INDEX 01 01:09:28
  TRACK 50 AUDIO
    TITLE "0:"
    INDEX 01 01:10:37
  TRACK 51 AUDIO
    TITLE "4:cjc004_5091"
    INDEX 01 01:10:69
  TRACK 52 AUDIO
    TITLE "0:"
    INDEX 01 01:12:24
  TRACK 53 AUDIO
    TITLE "5:cjc004_5092"
    INDEX 01 01:12:48
  TRACK 54 AUDIO
    TITLE "0:"
    INDEX 01 01:17:14
  TRACK 55 AUDIO
    TITLE "3:cjc004_5093"
    INDEX 01 01:17:73
  TRACK 56 AUDIO
    TITLE "0:"
    INDEX 01 01:19:05
  TRACK 57 AUDIO
    TITLE "4:cjc004_5094"
    INDEX 01 01:19:34
  TRACK 58 AUDIO
    TITLE "0:"
    INDEX 01 01:20:57
  TRACK 59 AUDIO
    TITLE "5:cjc004_5095"
    INDEX 01 01:21:04
  TRACK 60 AUDIO
    TITLE "0:"
    INDEX 01 01:26:23
